<svg id="visual" viewBox="0 0 1920 1080" width="1920" height="1080" xmlns="http://www.w3.org/2000/svg" xmlns:xlink="http://www.w3.org/1999/xlink" version="1.1"><path d="M0 969L32 968.5C64 968 128 967 192 960.3C256 953.7 320 941.3 384 935.3C448 929.3 512 929.7 576 939.8C640 950 704 970 768 982.3C832 994.7 896 999.3 960 996.8C1024 994.3 1088 984.7 1152 984C1216 983.3 1280 991.7 1344 995.8C1408 1000 1472 1000 1536 991C1600 982 1664 964 1728 953.3C1792 942.7 1856 939.3 1888 937.7L1920 936L1920 1081L1888 1081C1856 1081 1792 1081 1728 1081C1664 1081 1600 1081 1536 1081C1472 1081 1408 1081 1344 1081C1280 1081 1216 1081 1152 1081C1088 1081 1024 1081 960 1081C896 1081 832 1081 768 1081C704 1081 640 1081 576 1081C512 1081 448 1081 384 1081C320 1081 256 1081 192 1081C128 1081 64 1081 32 1081L0 1081Z" fill="#212121" stroke-linecap="round" stroke-linejoin="miter"></path></svg>