<svg width="21" height="21" viewBox="0 0 21 21" fill="none" xmlns="http://www.w3.org/2000/svg">
<path d="M6.12 20V4.16H0.75V0.44H15.93V4.16H10.56V20H6.12ZM17.6836 20.36C16.9236 20.36 16.2836 20.1 15.7636 19.58C15.2636 19.04 15.0136 18.38 15.0136 17.6C15.0136 16.8 15.2636 16.14 15.7636 15.62C16.2836 15.08 16.9236 14.81 17.6836 14.81C18.4436 14.81 19.0736 15.08 19.5736 15.62C20.0936 16.14 20.3536 16.8 20.3536 17.6C20.3536 18.38 20.0936 19.04 19.5736 19.58C19.0736 20.1 18.4436 20.36 17.6836 20.36Z" fill="url(#paint0_linear)"/>
<defs>
<linearGradient id="paint0_linear" x1="-10" y1="-13" x2="14" y2="22" gradientUnits="userSpaceOnUse">
<stop/>
<stop offset="1" stop-color="#8060DB"/>
</linearGradient>
</defs>
</svg>
